<svg width="142" height="40" viewBox="0 0 142 40" fill="none" xmlns="http://www.w3.org/2000/svg">
<path d="M34.7815 19.8495C34.7882 18.2673 34.3951 16.7073 33.6363 15.3044C33.6363 15.8693 33.5031 16.4727 33.4232 17.0762C33.2634 18.2702 33.0769 19.5156 32.7839 20.8509C32.4111 22.4943 31.9849 23.9965 31.5322 25.3446L31.9849 25.152L32.9038 24.754C32.9038 24.998 32.7973 25.3446 32.6908 25.7427C32.6093 25.9798 32.5114 26.2114 32.3978 26.4359C32.2912 26.6799 32.1714 26.911 32.0515 27.1421C31.9317 27.3732 31.8251 27.553 31.7052 27.7584C31.4078 28.2475 31.074 28.7152 30.7064 29.1579C28.8921 31.3287 26.314 32.7817 23.4618 33.2407H23.1422C22.8954 33.2805 22.6464 33.3062 22.3964 33.3178H22.0901C20.125 33.325 18.1858 32.8851 16.4302 32.0339C14.7916 31.248 13.3763 30.089 12.3066 28.6573C11.2369 27.2256 10.545 25.5642 10.291 23.8168C10.291 23.4573 10.2244 23.1106 10.2111 22.7639C10.2111 22.6869 10.2111 22.6099 10.2111 22.5328C10.2202 21.2116 10.4914 19.9041 11.0101 18.6811C11.591 17.1982 12.5683 15.8899 13.843 14.8887C15.1177 13.8876 16.6443 13.2292 18.268 12.9805C17.7899 13.3741 17.3446 13.8034 16.9363 14.2644C16.7813 14.3879 16.6544 14.5409 16.5634 14.7138L22.1567 14.0975H22.3565C24.4855 14.1767 26.5541 14.8016 28.3493 15.9078L29.7742 14.534L30.0805 15.4584L30.227 15.9078C30.5049 15.3763 30.7452 14.8272 30.9462 14.2644C31.0394 14.0204 31.1326 13.7508 31.2125 13.4684C31.3995 12.864 31.5331 12.2455 31.6121 11.6195C31.632 11.286 31.632 10.9516 31.6121 10.6181C31.3723 10.7923 31.1015 10.9228 30.813 11.0032C30.635 11.0505 30.4516 11.0764 30.267 11.0803C30.0562 11.09 29.845 11.0684 29.6411 11.0161C29.0862 10.855 28.5914 10.5429 28.2161 10.1173C27.9379 9.80788 27.6925 9.47239 27.4837 9.11585C27.0575 7.83193 22.2899 6.44532 18.6276 4.40388C17.5921 3.8575 16.6341 3.18424 15.7777 2.40093C15.0758 1.76076 14.6085 0.918227 14.446 0C14.449 0.029887 14.449 0.0599969 14.446 0.0898839C14.446 0.0898839 14.446 0.0898808 14.446 0.166916C14.4383 0.218008 14.4383 0.269888 14.446 0.32098C14.4381 0.350455 14.4381 0.381389 14.446 0.410864C14.446 0.47506 14.446 0.539249 14.3794 0.603445C14.3857 0.650328 14.3857 0.697814 14.3794 0.744696C14.3794 0.821732 14.3794 0.885906 14.3794 0.962941C14.3858 1.01841 14.3858 1.07439 14.3794 1.12986V1.37381C14.386 1.43784 14.386 1.50235 14.3794 1.56639C14.3794 1.65626 14.3794 1.73332 14.3794 1.83604C14.3728 1.90436 14.3728 1.9731 14.3794 2.04143V2.32389C14.3728 2.4008 14.3728 2.47812 14.3794 2.55503C14.3794 2.64491 14.3794 2.74759 14.3794 2.85031C14.3794 2.95302 14.3794 3.00441 14.3794 3.08144L14.4593 3.38957L14.5392 3.63352L14.659 3.94165C14.6982 4.02553 14.7427 4.107 14.7922 4.1856C14.7922 4.28831 14.8854 4.39101 14.952 4.49373L15.1385 4.73767C15.2018 4.84108 15.273 4.9398 15.3515 5.03299C15.4181 5.12286 15.5114 5.19988 15.5913 5.28975L15.8576 5.5594L16.1106 5.75198C16.2177 5.84761 16.3336 5.93359 16.4569 6.00878L16.8164 6.23988L17.1361 6.43246L17.3225 6.53516L14.1929 5.14854L12.6348 4.45521C12.7757 5.06667 13.0186 5.65205 13.3539 6.18851C13.5113 6.45778 13.6893 6.7153 13.8867 6.95887C13.8867 6.95887 7.22797 6.75344 3.55238 11.8121H3.77875C4.15741 11.7908 4.52969 11.9132 4.81592 12.1531C5.10214 12.3931 5.2796 12.7315 5.31028 13.096C5.32444 13.2283 5.32444 13.3617 5.31028 13.494C5.32249 13.5964 5.32249 13.6998 5.31028 13.8022C5.11052 14.136 4.92404 14.4827 4.7376 14.8293C4.55116 15.176 3.87197 15.8821 3.32596 16.4984C2.96639 16.8964 2.60683 17.3073 2.24726 17.7823C1.03709 19.1665 0.261036 20.8544 0.0099548 22.6484C-0.00331827 22.8408 -0.00331827 23.0338 0.0099548 23.2261C0.188028 23.1173 0.375123 23.0228 0.569302 22.9437H0.702443H0.809004C1.03025 22.8806 1.26555 22.8797 1.48731 22.9411C1.70906 23.0025 1.90805 23.1237 2.06084 23.2904C2.29823 23.5763 2.46655 23.9096 2.55357 24.2661C2.79305 25.4865 2.93553 26.7226 2.97974 27.9638C3.04328 28.6881 3.14998 29.4083 3.29934 30.1208C3.62628 31.9826 4.55909 33.6958 5.96281 35.0126C5.96152 34.9912 5.96152 34.9697 5.96281 34.9483C5.90721 34.7386 5.88035 34.5228 5.88291 34.3064C5.87259 34.1237 5.90289 33.941 5.9718 33.7705C6.0407 33.5999 6.1466 33.4456 6.28242 33.3178C6.40008 33.2244 6.53594 33.1545 6.68196 33.1124H6.74853C6.95614 33.0841 7.16684 33.0841 7.37445 33.1124C8.70619 33.1894 9.49189 35.2052 11.1033 36.8999C12.0884 37.991 13.4086 38.7511 14.8721 39.0698H14.952C14.8771 38.7832 14.8771 38.4832 14.952 38.1967C14.9849 38.074 15.0481 37.9609 15.1362 37.867C15.2244 37.7731 15.3348 37.7012 15.4581 37.6574C15.9052 37.5691 16.3697 37.6138 16.7898 37.7858C17.8095 38.1302 18.8624 38.3753 19.9327 38.5176H20.1458C20.5054 38.5176 20.9182 38.6075 21.2778 38.6204C21.7896 38.6332 22.3016 38.6074 22.8093 38.5434C24.0265 38.3925 25.2098 38.0499 26.3117 37.529C26.1222 37.3437 26.0127 37.0959 26.0054 36.8357C26.0077 36.6804 26.0441 36.5272 26.112 36.3863C26.2678 36.166 26.4725 35.9818 26.7112 35.8471C27.0866 35.5998 27.494 35.4013 27.9231 35.2565C28.327 35.1293 28.7228 34.9793 29.1084 34.8071L29.3215 34.6916C30.105 34.2543 30.8183 33.7094 31.4389 33.0738C32.9387 31.4687 33.9965 29.5263 34.5152 27.4246C34.734 26.7491 34.8681 26.0508 34.9147 25.3446C34.9147 25.1521 34.9147 24.9594 34.9147 24.7669C35.0627 23.1281 35.018 21.4785 34.7815 19.8495Z" fill="white"/>
<path d="M47.4325 25.4084H52V28H44V14H47.4325V25.4084Z" fill="white"/>
<path d="M61.497 16.7016V19.6293H66.3872V22.1812H61.497V25.2892H67V28H58V14H67V16.6924L61.497 16.7016Z" fill="white"/>
<path d="M75.6078 14L79.0091 24.5352L82.4013 14H86L81.1623 28H76.8226L72 14H75.6078Z" fill="white"/>
<path d="M99.8922 25.4285H95.0741L94.2739 28H91L95.7086 14H99.2914L104 28H100.692L99.8922 25.4285ZM99.092 22.8231L97.4916 17.637L95.8715 22.8231H99.092Z" fill="white"/>
<path d="M122 28H118.731L113.266 19.4124V28H110V14H113.266L118.731 22.6671V14H122V28Z" fill="white"/>
<path d="M137.576 25.4285H132.384L131.523 28H128L133.071 14H136.929L142 28H138.435L137.576 25.4285ZM136.714 22.8231L134.991 17.637L133.246 22.8231H136.714Z" fill="white"/>
</svg>
